<svg xmlns="http://www.w3.org/2000/svg" viewBox="0 0 485 485">
	<path d="M379.793,141.535l2.621-80.154h-16.163C359.26,26.423,328.34,0,291.357,0h-97.715c-36.983,0-67.903,26.423-74.894,61.381
		h-16.163l2.62,80.156c-9.567,12.064-14.77,26.915-14.77,42.474c0,16.985,6.367,33.374,17.657,45.898L116.431,485h252.132
		l8.341-255.088c11.292-12.524,17.66-28.914,17.66-45.901C394.563,168.452,389.361,153.601,379.793,141.535z M193.643,30h97.715
		c20.325,0,37.627,13.148,43.878,31.381h-185.47C156.016,43.148,173.317,30,193.643,30z M351.996,212.465l-4.677,4.266L339.527,455
		H145.466l-7.787-238.271l-4.676-4.266c-7.986-7.285-12.566-17.655-12.566-28.453c0-9.99,3.822-19.465,10.763-26.678l4.39-4.563
		l-2.006-61.39h217.834l-2.007,61.388l4.39,4.563c6.941,7.214,10.764,16.688,10.764,26.68
		C364.563,194.81,359.982,205.181,351.996,212.465z"/>
</svg>
