<svg xmlns="http://www.w3.org/2000/svg" viewBox="0 0 512 512">
	<path d="M387.914,263.233c-4.849-47.482-44.493-83.286-92.226-83.286h-79.375c-47.717,0-87.368,35.804-92.226,83.286
		l-18.977,185.857c-1.447,14.088,3.168,28.199,12.665,38.714c9.488,10.516,23.058,16.544,37.227,16.544h201.998
		c14.16,0,27.722-6.028,37.226-16.544c9.498-10.516,14.113-24.626,12.666-38.706L387.914,263.233z M157.014,266.595
		c3.127-30.526,28.619-53.543,59.299-53.543h79.375c30.688,0,56.179,23.018,59.298,53.543l2.99,29.274H154.024L157.014,266.595z"/>
	<path d="M300.835,82.694c0-2.546-1.065-4.979-2.933-6.7l-71.424-65.926c-2.658-2.457-6.521-3.104-9.843-1.648
		c-3.322,1.455-5.464,4.727-5.464,8.357v132.273h89.664V82.694z"/>
</svg>
